<svg xmlns="http://www.w3.org/2000/svg" viewBox="0 0 1200 434"><linearGradient id="a" x1="0" y1="0" x2="1200"><stop offset="0%" stop-color="#1b1b37"/><stop offset="100%" stop-color="#151424"/></linearGradient><path fill="url(#a)" d="M0 0h1200v434H0z"/><g transform="translate(50)"><defs><linearGradient id="c" gradientUnits="userSpaceOnUse" x1="0" y1="0" x2="1200"><stop offset="0%" stop-color="#568ff8"/><stop offset="100%" stop-color="#5defe6"/></linearGradient></defs><mask id="b"><path fill="#fff" d="M0 0h1200v434H0z"/><path d="M120 190h50v120h-50zm300 20h50v65h-50z"/></mask><path d="M411.888 342.188c16.092 0 29.153-13.045 29.153-29.152V167.273c0-16.092-13.061-29.15-29.153-29.15H296.737a29.11 29.11 0 0 1-24.635-13.121l-11.805-17.49a29.19 29.19 0 0 0-24.344-13.118h-57.282c-16.108 0-29.153 13.058-29.153 29.153v189.489c0 16.107 13.045 29.152 29.153 29.152z" mask="url(#b)" stroke="url(#c)" stroke-width="20" fill="none"/><path d="m230.16 209-21.33 81.81h-12.72l-21.03-63.06-20.88 63.06h-12.66L120 209h14.37l15 63.36L169.8 209h11.37l20.94 63.36L216.3 209zm88.32 42.33h-60.27q0 7.53 2.28 13.14 2.25 5.61 6.21 9.21 3.81 3.51 9.06 5.25 5.22 1.77 11.52 1.77 8.34 0 16.8-3.33t12.06-6.57h.75v15.03q-6.96 2.91-14.22 4.89t-15.24 1.98q-20.37 0-31.8-11.01-11.4-11.04-11.4-31.32 0-20.07 10.95-31.86t28.8-11.79q16.56 0 25.53 9.66 8.97 9.69 8.97 27.48zm-13.41-10.56q-.06-10.83-5.43-16.77-5.4-5.91-16.38-5.91-11.07 0-17.61 6.51-6.57 6.51-7.44 16.17zm106.29 8.52q0 10.23-2.91 18.45-2.88 8.19-7.8 13.77-5.19 5.79-11.4 8.67-6.24 2.91-13.71 2.91-6.96 0-12.15-1.65-5.22-1.65-10.26-4.44l-.87 3.81h-12.9V176.84h13.77v40.71q5.79-4.74 12.3-7.8 6.51-3.03 14.64-3.03 14.52 0 22.89 11.13 8.4 11.13 8.4 31.44m-14.22.36q0-14.64-4.83-22.23t-15.6-7.59q-6 0-12.15 2.61-6.15 2.58-11.43 6.69v46.89q5.85 2.64 10.08 3.66 4.2 1.02 9.54 1.02 11.43 0 17.91-7.5 6.48-7.53 6.48-23.55m79.05.06h-45.72v-13.26h45.72zm68.76-59.55h-.72q-2.28-.66-5.94-1.35t-6.45-.69q-8.85 0-12.84 3.93-3.99 3.9-3.99 14.16V209h24.81v11.58h-24.39v70.23h-13.77v-70.23h-9.3V209h9.3v-2.73q0-14.55 7.26-22.35t20.94-7.8q4.62 0 8.31.42 3.72.45 6.78 1.02zm67.17 77.07q0 11.19-9.27 18.39-9.27 7.17-25.32 7.17-9.06 0-16.65-2.16t-12.72-4.74v-15.45h.75q6.51 4.92 14.49 7.8 7.98 2.91 15.33 2.91 9.06 0 14.19-2.94t5.13-9.24q0-4.83-2.79-7.32-2.76-2.49-10.68-4.23-2.94-.66-7.65-1.56-4.74-.87-8.61-1.89-10.77-2.85-15.27-8.4-4.5-5.52-4.5-13.59 0-5.04 2.07-9.51 2.1-4.47 6.33-7.98 4.11-3.45 10.44-5.46 6.36-2.01 14.19-2.01 7.32 0 14.82 1.8t12.48 4.35v14.73h-.72q-5.28-3.9-12.81-6.57-7.56-2.67-14.79-2.67-7.56 0-12.75 2.91-5.22 2.88-5.22 8.58 0 5.07 3.15 7.62 3.09 2.58 9.96 4.17 3.81.9 8.55 1.77 4.71.87 7.86 1.62 9.6 2.19 14.79 7.53 5.22 5.43 5.22 14.37m63.06-17.52h-45.72v-13.26h45.72zm91.11 31.8q0 20.79-9.45 30.54t-29.07 9.75q-6.51 0-12.72-.93-6.18-.9-12.18-2.61v-14.04h.72q3.36 1.32 10.71 3.24 7.32 1.95 14.64 1.95 7.02 0 11.64-1.68t7.17-4.68q2.58-2.88 3.66-6.9 1.11-4.02 1.11-9v-7.47q-6.24 4.98-11.91 7.44-5.67 2.43-14.46 2.43-14.64 0-23.25-10.56-8.61-10.59-8.61-29.85 0-10.56 2.97-18.21t8.1-13.23q4.74-5.19 11.55-8.07 6.84-2.91 13.56-2.91 7.11 0 11.91 1.44 4.8 1.41 10.14 4.35l.87-3.51h12.9zm-13.77-13.2v-44.58q-5.49-2.49-10.23-3.57-4.71-1.05-9.39-1.05-11.37 0-17.88 7.62t-6.51 22.11q0 13.77 4.83 20.88t16.05 7.11q6 0 12.03-2.31 6.06-2.31 11.1-6.21m54.78 22.5h-13.77V176.84h13.77zm96.99-40.86q0 19.98-10.26 31.56t-27.48 11.58q-17.34 0-27.57-11.58t-10.23-31.56q0-20.01 10.23-31.62t27.57-11.61q17.22 0 27.48 11.61t10.26 31.62m-14.22 0q0-15.9-6.24-23.64-6.21-7.71-17.28-7.71-11.19 0-17.4 7.71-6.18 7.74-6.18 23.64 0 15.36 6.24 23.31 6.21 7.95 17.34 7.95 10.98 0 17.25-7.86 6.27-7.89 6.27-23.4m107.52-.66q0 10.23-2.91 18.45-2.88 8.19-7.8 13.77-5.19 5.79-11.4 8.67-6.24 2.91-13.71 2.91-6.96 0-12.15-1.65-5.22-1.65-10.26-4.44l-.87 3.81h-12.9V176.84h13.77v40.71q5.79-4.74 12.3-7.8 6.51-3.03 14.64-3.03 14.52 0 22.89 11.13 8.4 11.13 8.4 31.44m-14.22.36q0-14.64-4.83-22.23t-15.6-7.59q-6 0-12.15 2.61-6.15 2.58-11.43 6.69v46.89q5.85 2.64 10.08 3.66 4.2 1.02 9.54 1.02 11.43 0 17.91-7.5 6.48-7.53 6.48-23.55" fill="url(#c)"/><g stroke="url(#c)" stroke-width="20"><path d="m914.314 70.23-10.459 119.544"/><path d="m963.462 104.645-108.754 50.714"/><path d="m859.937 95.588 98.295 68.829"/></g></g></svg>